<svg xmlns="http://www.w3.org/2000/svg" xmlns:xlink="http://www.w3.org/1999/xlink" width="200" zoomAndPan="magnify" viewBox="0 0 150 149.999998" height="200" preserveAspectRatio="xMidYMid meet" version="1.0"><defs><clipPath id="689f50df36"><path d="M 45.226562 75.578125 L 60.601562 75.578125 L 60.601562 106.269531 L 45.226562 106.269531 Z M 45.226562 75.578125 " clip-rule="nonzero"/></clipPath><clipPath id="e0d3731f0f"><path d="M 46.042969 75.578125 L 59.785156 75.578125 C 60.234375 75.578125 60.601562 75.941406 60.601562 76.390625 L 60.601562 105.410156 C 60.601562 105.859375 60.234375 106.226562 59.785156 106.226562 L 46.042969 106.226562 C 45.589844 106.226562 45.226562 105.859375 45.226562 105.410156 L 45.226562 76.390625 C 45.226562 75.941406 45.589844 75.578125 46.042969 75.578125 Z M 46.042969 75.578125 " clip-rule="nonzero"/></clipPath><clipPath id="0e5543b66a"><path d="M 90.015625 75.578125 L 105.394531 75.578125 L 105.394531 106.269531 L 90.015625 106.269531 Z M 90.015625 75.578125 " clip-rule="nonzero"/></clipPath><clipPath id="f064e9ed95"><path d="M 90.832031 75.578125 L 104.578125 75.578125 C 105.027344 75.578125 105.394531 75.941406 105.394531 76.390625 L 105.394531 105.410156 C 105.394531 105.859375 105.027344 106.226562 104.578125 106.226562 L 90.832031 106.226562 C 90.382812 106.226562 90.015625 105.859375 90.015625 105.410156 L 90.015625 76.390625 C 90.015625 75.941406 90.382812 75.578125 90.832031 75.578125 Z M 90.832031 75.578125 " clip-rule="nonzero"/></clipPath></defs><path stroke-linecap="butt" transform="matrix(0.557532, 0.501655, -0.501655, 0.557532, 51.495073, 43.776587)" fill="none" stroke-linejoin="miter" d="M -0.00140492 12.501892 L 49.756722 12.501065 " stroke="#fcfcfc" stroke-width="25" stroke-opacity="1" stroke-miterlimit="4"/><path stroke-linecap="butt" transform="matrix(0.543162, -0.51718, 0.51718, 0.543162, 62.303158, 78.050153)" fill="none" stroke-linejoin="miter" d="M 0.00141703 12.501656 L 65.929406 12.499756 " stroke="#fcfcfc" stroke-width="25" stroke-opacity="1" stroke-miterlimit="4"/><g clip-path="url(#689f50df36)"><g clip-path="url(#e0d3731f0f)"><path fill="#fcfcfc" d="M 45.226562 75.578125 L 60.601562 75.578125 L 60.601562 106.207031 L 45.226562 106.207031 Z M 45.226562 75.578125 " fill-opacity="1" fill-rule="nonzero"/></g></g><g clip-path="url(#0e5543b66a)"><g clip-path="url(#f064e9ed95)"><path fill="#fcfcfc" d="M 90.015625 75.578125 L 105.394531 75.578125 L 105.394531 106.207031 L 90.015625 106.207031 Z M 90.015625 75.578125 " fill-opacity="1" fill-rule="nonzero"/></g></g></svg>