<svg xmlns="http://www.w3.org/2000/svg" xmlns:xlink="http://www.w3.org/1999/xlink" width="500" zoomAndPan="magnify" viewBox="0 0 375 149.999998" height="200" preserveAspectRatio="xMidYMid meet" version="1.0"><defs><g/><clipPath id="3f4a09e060"><path d="M 48.757812 73.785156 L 65.378906 73.785156 L 65.378906 106.957031 L 48.757812 106.957031 Z M 48.757812 73.785156 " clip-rule="nonzero"/></clipPath><clipPath id="4550e6b7b5"><path d="M 50.769531 73.785156 L 63.367188 73.785156 C 64.480469 73.785156 65.378906 74.683594 65.378906 75.796875 L 65.378906 104.902344 C 65.378906 106.011719 64.480469 106.910156 63.367188 106.910156 L 50.769531 106.910156 C 49.660156 106.910156 48.757812 106.011719 48.757812 104.902344 L 48.757812 75.796875 C 48.757812 74.683594 49.660156 73.785156 50.769531 73.785156 Z M 50.769531 73.785156 " clip-rule="nonzero"/></clipPath><clipPath id="e4672fb5fa"><path d="M 97.171875 73.785156 L 113.789062 73.785156 L 113.789062 106.957031 L 97.171875 106.957031 Z M 97.171875 73.785156 " clip-rule="nonzero"/></clipPath><clipPath id="4c3adbb32e"><path d="M 99.179688 73.785156 L 111.78125 73.785156 C 112.890625 73.785156 113.789062 74.683594 113.789062 75.796875 L 113.789062 104.902344 C 113.789062 106.011719 112.890625 106.910156 111.78125 106.910156 L 99.179688 106.910156 C 98.070312 106.910156 97.171875 106.011719 97.171875 104.902344 L 97.171875 75.796875 C 97.171875 74.683594 98.070312 73.785156 99.179688 73.785156 Z M 99.179688 73.785156 " clip-rule="nonzero"/></clipPath></defs><path stroke-linecap="butt" transform="matrix(0.557532, 0.501655, -0.501655, 0.557532, 55.530293, 39.423215)" fill="none" stroke-linejoin="miter" d="M -0.000751119 13.499447 L 53.780842 13.500665 " stroke="#667be1" stroke-width="27" stroke-opacity="1" stroke-miterlimit="4"/><path stroke-linecap="butt" transform="matrix(0.543162, -0.51718, 0.51718, 0.543162, 65.496715, 75.555358)" fill="none" stroke-linejoin="miter" d="M 0.00298264 13.5004 L 71.258019 13.500591 " stroke="#667be1" stroke-width="27" stroke-opacity="1" stroke-miterlimit="4"/><g clip-path="url(#3f4a09e060)"><g clip-path="url(#4550e6b7b5)"><path fill="#667be1" d="M 48.757812 73.785156 L 65.378906 73.785156 L 65.378906 106.894531 L 48.757812 106.894531 Z M 48.757812 73.785156 " fill-opacity="1" fill-rule="nonzero"/></g></g><g clip-path="url(#e4672fb5fa)"><g clip-path="url(#4c3adbb32e)"><path fill="#667be1" d="M 97.171875 73.785156 L 113.789062 73.785156 L 113.789062 106.894531 L 97.171875 106.894531 Z M 97.171875 73.785156 " fill-opacity="1" fill-rule="nonzero"/></g></g><g fill="#667be1" fill-opacity="1"><g transform="translate(148.91752, 59.17569)"><g><path d="M 9.234375 0 L 5.1875 -13.1875 L 5.078125 -13.1875 C 5.097656 -12.875 5.125 -12.398438 5.15625 -11.765625 C 5.1875 -11.128906 5.21875 -10.457031 5.25 -9.75 C 5.28125 -9.039062 5.296875 -8.394531 5.296875 -7.8125 L 5.296875 0 L 2.109375 0 L 2.109375 -16.8125 L 6.96875 -16.8125 L 10.953125 -3.953125 L 11.015625 -3.953125 L 15.234375 -16.8125 L 20.09375 -16.8125 L 20.09375 0 L 16.765625 0 L 16.765625 -7.953125 C 16.765625 -8.484375 16.773438 -9.09375 16.796875 -9.78125 C 16.816406 -10.46875 16.835938 -11.125 16.859375 -11.75 C 16.890625 -12.375 16.914062 -12.847656 16.9375 -13.171875 L 16.828125 -13.171875 L 12.5 0 Z M 9.234375 0 "/></g></g></g><g fill="#667be1" fill-opacity="1"><g transform="translate(172.298059, 59.17569)"><g><path d="M 7.484375 -16.8125 C 9.648438 -16.8125 11.234375 -16.34375 12.234375 -15.40625 C 13.234375 -14.476562 13.734375 -13.195312 13.734375 -11.5625 C 13.734375 -10.832031 13.617188 -10.128906 13.390625 -9.453125 C 13.171875 -8.785156 12.8125 -8.191406 12.3125 -7.671875 C 11.8125 -7.148438 11.140625 -6.738281 10.296875 -6.4375 C 9.460938 -6.132812 8.429688 -5.984375 7.203125 -5.984375 L 5.6875 -5.984375 L 5.6875 0 L 2.109375 0 L 2.109375 -16.8125 Z M 7.296875 -13.890625 L 5.6875 -13.890625 L 5.6875 -8.90625 L 6.859375 -8.90625 C 7.523438 -8.90625 8.101562 -8.988281 8.59375 -9.15625 C 9.082031 -9.332031 9.457031 -9.609375 9.71875 -9.984375 C 9.988281 -10.367188 10.125 -10.851562 10.125 -11.4375 C 10.125 -12.269531 9.894531 -12.882812 9.4375 -13.28125 C 8.976562 -13.6875 8.265625 -13.890625 7.296875 -13.890625 Z M 7.296875 -13.890625 "/></g></g></g><g fill="#667be1" fill-opacity="1"><g transform="translate(188.262334, 59.17569)"><g><path d="M 5.625 0 L 2.109375 0 L 2.109375 -16.8125 L 11.75 -16.8125 L 11.75 -13.890625 L 5.625 -13.890625 L 5.625 -9.546875 L 11.328125 -9.546875 L 11.328125 -6.640625 L 5.625 -6.640625 Z M 5.625 0 "/></g></g></g><g fill="#667be1" fill-opacity="1"><g transform="translate(148.91752, 83.791283)"><g><path d="M 2.109375 0 L 2.109375 -16.8125 L 5.6875 -16.8125 L 5.6875 0 Z M 2.109375 0 "/></g></g></g><g fill="#667be1" fill-opacity="1"><g transform="translate(157.890958, 83.791283)"><g><path d="M 17.03125 0 L 12.5 0 L 5.1875 -12.71875 L 5.078125 -12.71875 C 5.109375 -12.1875 5.132812 -11.648438 5.15625 -11.109375 C 5.1875 -10.578125 5.210938 -10.046875 5.234375 -9.515625 C 5.253906 -8.984375 5.273438 -8.445312 5.296875 -7.90625 L 5.296875 0 L 2.109375 0 L 2.109375 -16.8125 L 6.609375 -16.8125 L 13.90625 -4.21875 L 14 -4.21875 C 13.976562 -4.738281 13.957031 -5.253906 13.9375 -5.765625 C 13.914062 -6.285156 13.894531 -6.800781 13.875 -7.3125 C 13.851562 -7.820312 13.832031 -8.335938 13.8125 -8.859375 L 13.8125 -16.8125 L 17.03125 -16.8125 Z M 17.03125 0 "/></g></g></g><g fill="#667be1" fill-opacity="1"><g transform="translate(178.213007, 83.791283)"><g><path d="M 8.5 -9.4375 L 15.171875 -9.4375 L 15.171875 -0.71875 C 14.285156 -0.425781 13.363281 -0.191406 12.40625 -0.015625 C 11.457031 0.148438 10.382812 0.234375 9.1875 0.234375 C 7.519531 0.234375 6.101562 -0.09375 4.9375 -0.75 C 3.769531 -1.414062 2.882812 -2.390625 2.28125 -3.671875 C 1.675781 -4.960938 1.375 -6.546875 1.375 -8.421875 C 1.375 -10.191406 1.710938 -11.71875 2.390625 -13 C 3.066406 -14.289062 4.054688 -15.285156 5.359375 -15.984375 C 6.671875 -16.691406 8.269531 -17.046875 10.15625 -17.046875 C 11.039062 -17.046875 11.914062 -16.945312 12.78125 -16.75 C 13.644531 -16.5625 14.429688 -16.316406 15.140625 -16.015625 L 13.953125 -13.171875 C 13.441406 -13.429688 12.851562 -13.644531 12.1875 -13.8125 C 11.53125 -13.988281 10.84375 -14.078125 10.125 -14.078125 C 9.09375 -14.078125 8.195312 -13.835938 7.4375 -13.359375 C 6.675781 -12.890625 6.082031 -12.226562 5.65625 -11.375 C 5.238281 -10.519531 5.03125 -9.515625 5.03125 -8.359375 C 5.03125 -7.265625 5.179688 -6.289062 5.484375 -5.4375 C 5.785156 -4.59375 6.253906 -3.929688 6.890625 -3.453125 C 7.535156 -2.972656 8.378906 -2.734375 9.421875 -2.734375 C 9.921875 -2.734375 10.34375 -2.757812 10.6875 -2.8125 C 11.039062 -2.863281 11.375 -2.914062 11.6875 -2.96875 L 11.6875 -6.46875 L 8.5 -6.46875 Z M 8.5 -9.4375 "/></g></g></g><g fill="#667be1" fill-opacity="1"><g transform="translate(196.442406, 83.791283)"><g><path d="M 11.796875 0 L 2.109375 0 L 2.109375 -16.8125 L 11.796875 -16.8125 L 11.796875 -13.890625 L 5.6875 -13.890625 L 5.6875 -10.203125 L 11.375 -10.203125 L 11.375 -7.28125 L 5.6875 -7.28125 L 5.6875 -2.9375 L 11.796875 -2.9375 Z M 11.796875 0 "/></g></g></g><g fill="#667be1" fill-opacity="1"><g transform="translate(210.808444, 83.791283)"><g><path d="M 17.03125 0 L 12.5 0 L 5.1875 -12.71875 L 5.078125 -12.71875 C 5.109375 -12.1875 5.132812 -11.648438 5.15625 -11.109375 C 5.1875 -10.578125 5.210938 -10.046875 5.234375 -9.515625 C 5.253906 -8.984375 5.273438 -8.445312 5.296875 -7.90625 L 5.296875 0 L 2.109375 0 L 2.109375 -16.8125 L 6.609375 -16.8125 L 13.90625 -4.21875 L 14 -4.21875 C 13.976562 -4.738281 13.957031 -5.253906 13.9375 -5.765625 C 13.914062 -6.285156 13.894531 -6.800781 13.875 -7.3125 C 13.851562 -7.820312 13.832031 -8.335938 13.8125 -8.859375 L 13.8125 -16.8125 L 17.03125 -16.8125 Z M 17.03125 0 "/></g></g></g><g fill="#667be1" fill-opacity="1"><g transform="translate(231.130491, 83.791283)"><g><path d="M 2.109375 0 L 2.109375 -16.8125 L 5.6875 -16.8125 L 5.6875 0 Z M 2.109375 0 "/></g></g></g><g fill="#667be1" fill-opacity="1"><g transform="translate(240.103927, 83.791283)"><g><path d="M 11.796875 0 L 2.109375 0 L 2.109375 -16.8125 L 11.796875 -16.8125 L 11.796875 -13.890625 L 5.6875 -13.890625 L 5.6875 -10.203125 L 11.375 -10.203125 L 11.375 -7.28125 L 5.6875 -7.28125 L 5.6875 -2.9375 L 11.796875 -2.9375 Z M 11.796875 0 "/></g></g></g><g fill="#667be1" fill-opacity="1"><g transform="translate(254.469965, 83.791283)"><g><path d="M 7.015625 -16.8125 C 8.535156 -16.8125 9.789062 -16.625 10.78125 -16.25 C 11.78125 -15.882812 12.519531 -15.328125 13 -14.578125 C 13.488281 -13.835938 13.734375 -12.90625 13.734375 -11.78125 C 13.734375 -11.007812 13.585938 -10.335938 13.296875 -9.765625 C 13.003906 -9.191406 12.617188 -8.703125 12.140625 -8.296875 C 11.660156 -7.898438 11.144531 -7.578125 10.59375 -7.328125 L 15.546875 0 L 11.59375 0 L 7.578125 -6.453125 L 5.6875 -6.453125 L 5.6875 0 L 2.109375 0 L 2.109375 -16.8125 Z M 6.765625 -13.890625 L 5.6875 -13.890625 L 5.6875 -9.34375 L 6.828125 -9.34375 C 8.003906 -9.34375 8.847656 -9.539062 9.359375 -9.9375 C 9.867188 -10.332031 10.125 -10.914062 10.125 -11.6875 C 10.125 -12.476562 9.847656 -13.039062 9.296875 -13.375 C 8.753906 -13.71875 7.910156 -13.890625 6.765625 -13.890625 Z M 6.765625 -13.890625 "/></g></g></g><g fill="#667be1" fill-opacity="1"><g transform="translate(271.193111, 83.791283)"><g><path d="M 2.109375 0 L 2.109375 -16.8125 L 5.6875 -16.8125 L 5.6875 0 Z M 8.859375 -22 L 8.859375 -21.75 C 8.640625 -21.53125 8.347656 -21.265625 7.984375 -20.953125 C 7.617188 -20.640625 7.226562 -20.3125 6.8125 -19.96875 C 6.40625 -19.632812 6 -19.3125 5.59375 -19 C 5.195312 -18.6875 4.851562 -18.425781 4.5625 -18.21875 L 2.21875 -18.21875 L 2.21875 -18.53125 C 2.476562 -18.820312 2.773438 -19.164062 3.109375 -19.5625 C 3.441406 -19.96875 3.769531 -20.382812 4.09375 -20.8125 C 4.425781 -21.25 4.703125 -21.644531 4.921875 -22 Z M 8.859375 -22 "/></g></g></g><g fill="#667be1" fill-opacity="1"><g transform="translate(280.166547, 83.791283)"><g><path d="M 12.40625 0 L 11.1875 -4 L 5.0625 -4 L 3.84375 0 L 0 0 L 5.9375 -16.875 L 10.296875 -16.875 L 16.25 0 Z M 10.34375 -6.984375 L 9.125 -10.90625 C 9.039062 -11.164062 8.9375 -11.5 8.8125 -11.90625 C 8.6875 -12.3125 8.5625 -12.726562 8.4375 -13.15625 C 8.3125 -13.582031 8.207031 -13.953125 8.125 -14.265625 C 8.050781 -13.953125 7.945312 -13.5625 7.8125 -13.09375 C 7.675781 -12.632812 7.546875 -12.195312 7.421875 -11.78125 C 7.304688 -11.375 7.21875 -11.082031 7.15625 -10.90625 L 5.953125 -6.984375 Z M 10.34375 -6.984375 "/></g></g></g><g fill="#667be1" fill-opacity="1"><g transform="translate(148.91752, 108.406876)"><g><path d="M 9.25 -14.078125 C 8.570312 -14.078125 7.96875 -13.945312 7.4375 -13.6875 C 6.914062 -13.425781 6.476562 -13.046875 6.125 -12.546875 C 5.769531 -12.046875 5.5 -11.441406 5.3125 -10.734375 C 5.125 -10.035156 5.03125 -9.242188 5.03125 -8.359375 C 5.03125 -7.171875 5.175781 -6.15625 5.46875 -5.3125 C 5.769531 -4.476562 6.226562 -3.835938 6.84375 -3.390625 C 7.46875 -2.953125 8.269531 -2.734375 9.25 -2.734375 C 9.9375 -2.734375 10.625 -2.8125 11.3125 -2.96875 C 12 -3.125 12.742188 -3.34375 13.546875 -3.625 L 13.546875 -0.625 C 12.796875 -0.320312 12.0625 -0.101562 11.34375 0.03125 C 10.625 0.164062 9.816406 0.234375 8.921875 0.234375 C 7.191406 0.234375 5.769531 -0.125 4.65625 -0.84375 C 3.539062 -1.5625 2.710938 -2.566406 2.171875 -3.859375 C 1.640625 -5.148438 1.375 -6.65625 1.375 -8.375 C 1.375 -9.65625 1.546875 -10.820312 1.890625 -11.875 C 2.234375 -12.9375 2.738281 -13.851562 3.40625 -14.625 C 4.070312 -15.394531 4.894531 -15.988281 5.875 -16.40625 C 6.851562 -16.832031 7.976562 -17.046875 9.25 -17.046875 C 10.09375 -17.046875 10.929688 -16.941406 11.765625 -16.734375 C 12.609375 -16.523438 13.410156 -16.234375 14.171875 -15.859375 L 13.03125 -12.96875 C 12.394531 -13.269531 11.757812 -13.53125 11.125 -13.75 C 10.488281 -13.96875 9.863281 -14.078125 9.25 -14.078125 Z M 9.25 -14.078125 "/></g></g></g><g fill="#667be1" fill-opacity="1"><g transform="translate(165.100258, 108.406876)"><g><path d="M 2.109375 0 L 2.109375 -16.8125 L 5.6875 -16.8125 L 5.6875 0 Z M 2.109375 0 "/></g></g></g><g fill="#667be1" fill-opacity="1"><g transform="translate(174.073696, 108.406876)"><g><path d="M 15.296875 -16.8125 L 9.59375 0 L 5.703125 0 L 0 -16.8125 L 3.59375 -16.8125 L 6.765625 -6.8125 C 6.816406 -6.632812 6.898438 -6.3125 7.015625 -5.84375 C 7.140625 -5.382812 7.265625 -4.894531 7.390625 -4.375 C 7.523438 -3.863281 7.613281 -3.441406 7.65625 -3.109375 C 7.695312 -3.441406 7.773438 -3.863281 7.890625 -4.375 C 8.015625 -4.894531 8.132812 -5.382812 8.25 -5.84375 C 8.375 -6.3125 8.460938 -6.632812 8.515625 -6.8125 L 11.703125 -16.8125 Z M 15.296875 -16.8125 "/></g></g></g><g fill="#667be1" fill-opacity="1"><g transform="translate(190.555386, 108.406876)"><g><path d="M 2.109375 0 L 2.109375 -16.8125 L 5.6875 -16.8125 L 5.6875 0 Z M 2.109375 0 "/></g></g></g><g fill="#667be1" fill-opacity="1"><g transform="translate(199.528822, 108.406876)"><g><path d="M 2.109375 0 L 2.109375 -16.8125 L 5.6875 -16.8125 L 5.6875 -2.9375 L 12.5 -2.9375 L 12.5 0 Z M 2.109375 0 "/></g></g></g></svg>